<svg width="361" height="700" viewBox="0 0 361 700" fill="none" xmlns="http://www.w3.org/2000/svg">
<mask id="path-1-outside-1_203_75" maskUnits="userSpaceOnUse" x="8" y="98" width="347" height="582" fill="black">
<rect fill="white" x="8" y="98" width="347" height="582"/>
<path d="M182.795 667.225C151.15 667.225 123.397 661.259 99.5335 649.328C75.6705 636.878 56.995 619.758 43.5072 597.97C30.5381 575.664 24.0536 550.504 24.0536 522.49L24.0536 498.368C24.0536 495.774 24.8317 493.699 26.388 492.143C28.4631 490.068 30.7975 489.03 33.3913 489.03L142.331 489.03C144.925 489.03 147 490.068 148.557 492.143C150.632 493.699 151.669 495.774 151.669 498.368V516.265C151.669 528.716 154.522 538.572 160.229 545.835C166.454 553.097 174.235 556.729 183.573 556.729C192.911 556.729 200.433 553.357 206.139 546.613C212.364 539.35 215.477 530.272 215.477 519.378C215.477 507.446 210.808 496.812 201.47 487.474C192.133 477.617 173.457 462.573 145.444 442.342C119.506 423.666 98.2366 407.066 81.6362 392.54C65.0358 377.496 50.7699 359.08 38.8383 337.292C26.9068 314.985 20.941 289.307 20.941 260.256C20.941 230.686 27.4255 204.489 40.3946 181.663C53.8824 158.838 72.5579 141.2 96.421 128.75C120.803 116.299 148.557 110.074 179.682 110.074C211.327 110.074 239.081 116.559 262.944 129.528C287.326 141.978 306.001 159.875 318.97 183.22C332.458 206.045 339.202 232.502 339.202 262.59L339.202 281.266C339.202 283.86 338.164 286.194 336.089 288.269C334.533 289.825 332.458 290.604 329.864 290.604L221.702 290.604C219.108 290.604 216.774 289.825 214.699 288.269C213.143 286.194 212.364 283.86 212.364 281.266V259.478C212.364 248.065 209.252 238.727 203.027 231.465C196.802 224.202 189.02 220.571 179.682 220.571C170.345 220.571 162.823 224.202 157.116 231.465C151.41 238.727 148.557 248.324 148.557 260.256C148.557 273.225 152.966 284.897 161.785 295.272C170.604 305.648 188.501 320.692 215.477 340.405C248.159 364.787 272.8 384.5 289.401 399.544C306.001 414.588 318.97 431.448 328.308 450.123C337.646 468.28 342.314 489.808 342.314 514.709C342.314 561.398 327.53 598.489 297.96 625.984C268.91 653.478 230.521 667.225 182.795 667.225Z"/>
</mask>
<path d="M99.5335 649.328L93.9827 659.967L94.0745 660.015L94.167 660.061L99.5335 649.328ZM43.5072 597.97L33.1331 604.002L33.2166 604.145L33.304 604.287L43.5072 597.97ZM26.388 492.143L34.8733 500.628H34.8733L26.388 492.143ZM148.557 492.143L138.957 499.343L139.985 500.714L141.357 501.743L148.557 492.143ZM160.229 545.835L150.793 553.249L150.951 553.45L151.118 553.644L160.229 545.835ZM206.139 546.613L197.028 538.803L197.003 538.832L196.979 538.862L206.139 546.613ZM201.47 487.474L192.759 495.727L192.87 495.845L192.985 495.959L201.47 487.474ZM145.444 442.342L152.47 432.613L152.463 432.608L152.456 432.603L145.444 442.342ZM81.6362 392.54L73.578 401.432L73.6555 401.502L73.7342 401.571L81.6362 392.54ZM38.8383 337.292L28.2569 342.952L28.2848 343.004L28.3132 343.056L38.8383 337.292ZM40.3946 181.663L30.0635 175.559L30.0116 175.647L29.9611 175.735L40.3946 181.663ZM96.421 128.75L90.9636 118.062L90.9168 118.086L90.8702 118.111L96.421 128.75ZM262.944 129.528L257.214 140.071L257.349 140.145L257.486 140.215L262.944 129.528ZM318.97 183.22L308.48 189.047L308.558 189.187L308.639 189.324L318.97 183.22ZM336.089 288.269L327.604 279.784L327.604 279.784L336.089 288.269ZM214.699 288.269L205.099 295.469L206.127 296.841L207.499 297.869L214.699 288.269ZM203.027 231.465L193.916 239.274L203.027 231.465ZM157.116 231.465L166.552 238.878L157.116 231.465ZM161.785 295.272L170.928 287.501H170.928L161.785 295.272ZM215.477 340.405L222.653 330.786L222.605 330.751L222.557 330.716L215.477 340.405ZM289.401 399.544L297.459 390.652L297.459 390.652L289.401 399.544ZM328.308 450.123L317.575 455.49L317.605 455.551L317.636 455.611L328.308 450.123ZM297.96 625.984L289.789 617.195L289.75 617.232L289.712 617.268L297.96 625.984ZM182.795 655.225C152.669 655.225 126.814 649.552 104.9 638.595L94.167 660.061C119.979 672.967 149.632 679.225 182.795 679.225L182.795 655.225ZM105.084 638.689C83.0317 627.183 66.0056 611.516 53.7104 591.654L33.304 604.287C47.9844 628.001 68.3092 646.572 93.9827 659.967L105.084 638.689ZM53.8813 591.939C42.0675 571.619 36.0536 548.572 36.0536 522.49H12.0536C12.0536 552.435 19.0088 579.708 33.1331 604.002L53.8813 591.939ZM36.0536 522.49L36.0536 498.368H12.0536L12.0536 522.49H36.0536ZM36.0536 498.368C36.0536 498.269 36.0674 498.562 35.8731 499.08C35.665 499.635 35.3151 500.186 34.8733 500.628L17.9028 483.658C13.6976 487.863 12.0536 493.203 12.0536 498.368H36.0536ZM34.8733 500.628C35.0224 500.479 34.932 500.613 34.5688 500.774C34.1776 500.948 33.7469 501.03 33.3913 501.03L33.3913 477.03C27.1865 477.03 21.906 479.654 17.9027 483.658L34.8733 500.628ZM33.3913 501.03L142.331 501.03L142.331 477.03L33.3913 477.03L33.3913 501.03ZM142.331 501.03C141.988 501.03 141.283 500.95 140.467 500.542C139.65 500.133 139.163 499.618 138.957 499.343L158.157 484.943C154.334 479.846 148.702 477.03 142.331 477.03L142.331 501.03ZM141.357 501.743C141.082 501.537 140.566 501.05 140.158 500.233C139.75 499.416 139.669 498.712 139.669 498.368H163.669C163.669 491.997 160.853 486.365 155.757 482.543L141.357 501.743ZM139.669 498.368V516.265H163.669V498.368H139.669ZM139.669 516.265C139.669 530.474 142.93 543.241 150.793 553.249L169.665 538.421C166.115 533.903 163.669 526.958 163.669 516.265H139.669ZM151.118 553.644C159.559 563.492 170.635 568.729 183.573 568.729V544.729C177.835 544.729 173.349 542.703 169.34 538.025L151.118 553.644ZM183.573 568.729C196.211 568.729 207.169 563.973 215.3 554.364L196.979 538.862C193.697 542.74 189.611 544.729 183.573 544.729V568.729ZM215.25 554.422C223.598 544.684 227.477 532.713 227.477 519.378H203.477C203.477 527.83 201.131 534.017 197.028 538.803L215.25 554.422ZM227.477 519.378C227.477 503.909 221.28 490.313 209.956 478.989L192.985 495.959C200.336 503.31 203.477 510.983 203.477 519.378H227.477ZM210.182 479.221C199.977 468.449 180.442 452.816 152.47 432.613L138.418 452.07C166.472 472.331 184.289 486.786 192.759 495.727L210.182 479.221ZM152.456 432.603C126.702 414.061 105.758 397.702 89.5383 383.509L73.7342 401.571C90.7152 416.43 112.31 433.272 138.432 452.08L152.456 432.603ZM89.6945 383.649C74.1866 369.595 60.7222 352.27 49.3635 331.528L28.3132 343.056C40.8175 365.89 55.885 385.398 73.578 401.432L89.6945 383.649ZM49.4197 331.632C38.5495 311.31 32.941 287.627 32.941 260.256H8.94102C8.94102 290.986 15.2641 318.661 28.2569 342.952L49.4197 331.632ZM32.941 260.256C32.941 232.497 39.0103 208.391 50.8281 187.592L29.9611 175.735C15.8408 200.587 8.94102 228.876 8.94102 260.256H32.941ZM50.7257 187.768C63.0562 166.901 80.0621 150.82 101.972 139.389L90.8702 118.111C65.0537 131.58 44.7087 150.775 30.0635 175.559L50.7257 187.768ZM101.878 139.437C124.352 127.961 150.192 122.074 179.682 122.074V98.0742C146.921 98.0742 117.254 104.638 90.9636 118.062L101.878 139.437ZM179.682 122.074C209.657 122.074 235.38 128.205 257.214 140.071L268.674 118.984C242.782 104.912 212.996 98.0742 179.682 98.0742V122.074ZM257.486 140.215C279.802 151.61 296.699 167.842 308.48 189.047L329.46 177.392C315.303 151.909 294.849 132.346 268.401 118.841L257.486 140.215ZM308.639 189.324C320.893 210.062 327.202 234.354 327.202 262.59H351.202C351.202 230.65 344.023 202.028 329.301 177.115L308.639 189.324ZM327.202 262.59L327.202 281.266H351.202L351.202 262.59H327.202ZM327.202 281.266C327.202 280.91 327.284 280.48 327.458 280.088C327.619 279.725 327.753 279.635 327.604 279.784L344.574 296.754C348.578 292.751 351.202 287.471 351.202 281.266H327.202ZM327.604 279.784C328.046 279.342 328.597 278.992 329.152 278.784C329.67 278.59 329.963 278.604 329.864 278.604V302.604C335.029 302.604 340.369 300.96 344.575 296.754L327.604 279.784ZM329.864 278.604L221.702 278.604V302.604L329.864 302.604V278.604ZM221.702 278.604C221.656 278.604 221.65 278.6 221.677 278.605C221.705 278.609 221.749 278.618 221.801 278.636C221.853 278.653 221.894 278.672 221.918 278.685C221.943 278.698 221.936 278.697 221.899 278.669L207.499 297.869C211.651 300.983 216.512 302.604 221.702 302.604V278.604ZM224.299 281.069C224.271 281.032 224.27 281.025 224.283 281.05C224.296 281.074 224.315 281.115 224.332 281.167C224.35 281.219 224.359 281.263 224.363 281.291C224.368 281.318 224.364 281.312 224.364 281.266H200.364C200.364 286.456 201.985 291.317 205.099 295.469L224.299 281.069ZM224.364 281.266V259.478H200.364V281.266H224.364ZM224.364 259.478C224.364 245.78 220.573 233.496 212.138 223.655L193.916 239.274C197.931 243.959 200.364 250.35 200.364 259.478H224.364ZM212.138 223.655C203.697 213.807 192.62 208.571 179.682 208.571L179.682 232.571C185.42 232.571 189.906 234.597 193.916 239.274L212.138 223.655ZM179.682 208.571C166.71 208.571 155.691 213.856 147.68 224.051L166.552 238.878C169.954 234.548 173.98 232.571 179.682 232.571L179.682 208.571ZM147.68 224.051C139.882 233.976 136.557 246.428 136.557 260.256H160.557C160.557 250.221 162.938 243.479 166.552 238.878L147.68 224.051ZM136.557 260.256C136.557 276.223 142.079 290.617 152.642 303.044L170.928 287.501C163.853 279.177 160.557 270.227 160.557 260.256H136.557ZM152.642 303.044C162.48 314.619 181.443 330.396 208.397 350.093L222.557 330.716C195.56 310.987 178.728 296.677 170.928 287.501L152.642 303.044ZM208.301 350.023C240.882 374.329 265.165 393.775 281.342 408.436L297.459 390.652C280.435 375.224 255.436 355.244 222.653 330.786L208.301 350.023ZM281.342 408.436C296.921 422.554 308.95 438.239 317.575 455.49L339.041 444.756C328.991 424.656 315.081 406.622 297.459 390.652L281.342 408.436ZM317.636 455.611C325.93 471.737 330.314 491.304 330.314 514.709H354.314C354.314 488.313 349.361 464.822 338.979 444.635L317.636 455.611ZM330.314 514.709C330.314 558.634 316.528 592.333 289.789 617.195L306.132 634.772C338.531 604.645 354.314 564.161 354.314 514.709H330.314ZM289.712 617.268C263.309 642.257 228.083 655.225 182.795 655.225L182.795 679.225C232.959 679.225 274.51 664.699 306.209 634.699L289.712 617.268Z" fill="#3EDFD4" mask="url(#path-1-outside-1_203_75)"/>
</svg>
