<svg width="700" height="361" viewBox="0 0 700 361" fill="none" xmlns="http://www.w3.org/2000/svg">
<mask id="path-1-outside-1_203_74" maskUnits="userSpaceOnUse" x="20" y="7.99997" width="582" height="347" fill="black">
<rect fill="white" x="20" y="7.99997" width="582" height="347"/>
<path d="M32.7748 182.795C32.7748 151.15 38.7406 123.397 50.6722 99.5335C63.1225 75.6704 80.2416 56.995 102.03 43.5072C124.336 30.5381 149.496 24.0536 177.51 24.0536L201.632 24.0536C204.226 24.0536 206.301 24.8317 207.857 26.388C209.932 28.4631 210.97 30.7975 210.97 33.3913L210.97 142.331C210.97 144.925 209.932 147 207.857 148.557C206.301 150.632 204.226 151.669 201.632 151.669L183.735 151.669C171.284 151.669 161.428 154.522 154.165 160.229C146.903 166.454 143.271 174.235 143.271 183.573C143.271 192.911 146.643 200.433 153.387 206.139C160.65 212.364 169.728 215.477 180.622 215.477C192.554 215.477 203.188 210.808 212.526 201.47C222.383 192.133 237.427 173.457 257.658 145.444C276.334 119.506 292.934 98.2366 307.46 81.6362C322.504 65.0358 340.92 50.7698 362.708 38.8383C385.015 26.9068 410.693 20.941 439.744 20.941C469.314 20.941 495.511 27.4255 518.337 40.3946C541.162 53.8824 558.8 72.5579 571.25 96.421C583.701 120.803 589.926 148.557 589.926 179.682C589.926 211.327 583.441 239.081 570.472 262.944C558.022 287.326 540.125 306.001 516.78 318.97C493.955 332.458 467.498 339.202 437.41 339.202L418.734 339.202C416.14 339.202 413.806 338.164 411.731 336.089C410.175 334.533 409.396 332.458 409.396 329.864L409.396 221.702C409.396 219.108 410.175 216.774 411.731 214.699C413.806 213.143 416.14 212.364 418.734 212.364L440.522 212.364C451.935 212.364 461.273 209.252 468.535 203.027C475.798 196.802 479.429 189.02 479.429 179.682C479.429 170.345 475.798 162.823 468.535 157.116C461.273 151.41 451.676 148.557 439.744 148.557C426.775 148.557 415.103 152.966 404.728 161.785C394.352 170.604 379.308 188.501 359.595 215.477C335.213 248.159 315.5 272.8 300.456 289.401C285.412 306.001 268.552 318.97 249.877 328.308C231.72 337.646 210.192 342.314 185.291 342.314C138.602 342.314 101.511 327.53 74.0165 297.96C46.522 268.909 32.7748 230.521 32.7748 182.795Z"/>
</mask>
<path d="M50.6722 99.5335L40.0331 93.9827L39.9853 94.0744L39.939 94.1669L50.6722 99.5335ZM102.03 43.5072L95.9982 33.1331L95.8546 33.2166L95.7134 33.304L102.03 43.5072ZM207.857 26.388L199.372 34.8733L199.372 34.8733L207.857 26.388ZM207.857 148.557L200.657 138.957L199.286 139.985L198.257 141.357L207.857 148.557ZM154.165 160.229L146.751 150.793L146.55 150.951L146.356 151.118L154.165 160.229ZM153.387 206.139L161.197 197.028L161.168 197.003L161.138 196.979L153.387 206.139ZM212.526 201.47L204.273 192.759L204.155 192.87L204.041 192.985L212.526 201.47ZM257.658 145.444L267.387 152.47L267.392 152.463L267.397 152.456L257.658 145.444ZM307.46 81.6362L298.568 73.578L298.498 73.6555L298.429 73.7342L307.46 81.6362ZM362.708 38.8383L357.048 28.2569L356.996 28.2848L356.944 28.3132L362.708 38.8383ZM518.337 40.3946L524.441 30.0635L524.353 30.0116L524.265 29.9611L518.337 40.3946ZM571.25 96.421L581.938 90.9636L581.914 90.9168L581.889 90.8702L571.25 96.421ZM570.472 262.944L559.929 257.214L559.855 257.349L559.785 257.486L570.472 262.944ZM516.78 318.97L510.953 308.48L510.813 308.558L510.676 308.639L516.78 318.97ZM411.731 336.089L420.216 327.604L420.216 327.604L411.731 336.089ZM411.731 214.699L404.531 205.099L403.159 206.127L402.131 207.499L411.731 214.699ZM468.535 203.027L460.726 193.916L468.535 203.027ZM468.535 157.116L461.122 166.552L468.535 157.116ZM404.728 161.785L412.499 170.928L412.499 170.928L404.728 161.785ZM359.595 215.477L369.214 222.652L369.249 222.605L369.284 222.557L359.595 215.477ZM300.456 289.401L309.348 297.459L309.348 297.459L300.456 289.401ZM249.877 328.308L244.51 317.575L244.449 317.605L244.389 317.636L249.877 328.308ZM74.0165 297.96L82.8045 289.789L82.7684 289.75L82.732 289.712L74.0165 297.96ZM44.7748 182.795C44.7748 152.669 50.4483 126.814 61.4053 104.9L39.939 94.1669C27.033 119.979 20.7748 149.632 20.7748 182.795L44.7748 182.795ZM61.3112 105.084C72.8169 83.0317 88.4844 66.0056 108.346 53.7103L95.7134 33.304C71.9988 47.9844 53.428 68.3092 40.0331 93.9827L61.3112 105.084ZM108.061 53.8812C128.381 42.0674 151.428 36.0536 177.51 36.0536L177.51 12.0536C147.565 12.0536 120.292 19.0088 95.9982 33.1331L108.061 53.8812ZM177.51 36.0536L201.632 36.0536L201.632 12.0536L177.51 12.0536L177.51 36.0536ZM201.632 36.0536C201.731 36.0536 201.438 36.0674 200.92 35.8731C200.365 35.665 199.814 35.315 199.372 34.8733L216.342 17.9027C212.137 13.6976 206.797 12.0536 201.632 12.0536L201.632 36.0536ZM199.372 34.8733C199.521 35.0224 199.387 34.932 199.226 34.5688C199.052 34.1776 198.97 33.7469 198.97 33.3913L222.97 33.3913C222.97 27.1865 220.346 21.906 216.342 17.9027L199.372 34.8733ZM198.97 33.3913L198.97 142.331L222.97 142.331L222.97 33.3913L198.97 33.3913ZM198.97 142.331C198.97 141.988 199.05 141.283 199.458 140.467C199.867 139.65 200.382 139.163 200.657 138.957L215.057 158.157C220.154 154.334 222.97 148.702 222.97 142.331L198.97 142.331ZM198.257 141.357C198.463 141.082 198.95 140.566 199.767 140.158C200.584 139.749 201.288 139.669 201.632 139.669L201.632 163.669C208.003 163.669 213.635 160.853 217.457 155.757L198.257 141.357ZM201.632 139.669L183.735 139.669L183.735 163.669L201.632 163.669L201.632 139.669ZM183.735 139.669C169.526 139.669 156.759 142.93 146.751 150.793L161.579 169.665C166.097 166.115 173.042 163.669 183.735 163.669L183.735 139.669ZM146.356 151.118C136.508 159.559 131.271 170.635 131.271 183.573L155.271 183.573C155.271 177.835 157.297 173.349 161.975 169.34L146.356 151.118ZM131.271 183.573C131.271 196.211 136.027 207.169 145.636 215.3L161.138 196.979C157.26 193.697 155.271 189.611 155.271 183.573L131.271 183.573ZM145.578 215.25C155.316 223.598 167.287 227.477 180.622 227.477L180.622 203.477C172.17 203.477 165.983 201.131 161.197 197.028L145.578 215.25ZM180.622 227.477C196.091 227.477 209.687 221.28 221.011 209.956L204.041 192.985C196.69 200.336 189.017 203.477 180.622 203.477L180.622 227.477ZM220.779 210.182C231.551 199.977 247.184 180.442 267.387 152.47L247.93 138.418C227.669 166.472 213.214 184.289 204.273 192.759L220.779 210.182ZM267.397 152.456C285.939 126.702 302.298 105.758 316.491 89.5383L298.429 73.7342C283.57 90.7152 266.728 112.31 247.92 138.432L267.397 152.456ZM316.351 89.6944C330.405 74.1866 347.73 60.7222 368.472 49.3635L356.944 28.3132C334.11 40.8175 314.602 55.885 298.568 73.578L316.351 89.6944ZM368.368 49.4197C388.69 38.5495 412.373 32.941 439.744 32.941L439.744 8.94101C409.014 8.941 381.339 15.264 357.048 28.2569L368.368 49.4197ZM439.744 32.941C467.503 32.941 491.609 39.0103 512.408 50.8281L524.265 29.9611C499.413 15.8408 471.124 8.94101 439.744 8.94101L439.744 32.941ZM512.232 50.7257C533.099 63.0562 549.18 80.0621 560.611 101.972L581.889 90.8702C568.42 65.0537 549.225 44.7086 524.441 30.0635L512.232 50.7257ZM560.563 101.878C572.039 124.352 577.926 150.192 577.926 179.682L601.926 179.682C601.926 146.921 595.362 117.254 581.938 90.9636L560.563 101.878ZM577.926 179.682C577.926 209.657 571.795 235.38 559.929 257.214L581.016 268.674C595.088 242.782 601.926 212.996 601.926 179.682L577.926 179.682ZM559.785 257.486C548.39 279.802 532.158 296.699 510.953 308.48L522.608 329.46C548.091 315.303 567.654 294.849 581.159 268.401L559.785 257.486ZM510.676 308.639C489.938 320.893 465.646 327.202 437.41 327.202L437.41 351.202C469.35 351.202 497.972 344.023 522.885 329.301L510.676 308.639ZM437.41 327.202L418.734 327.202L418.734 351.202L437.41 351.202L437.41 327.202ZM418.734 327.202C419.09 327.202 419.52 327.284 419.912 327.458C420.275 327.619 420.365 327.753 420.216 327.604L403.246 344.574C407.249 348.578 412.529 351.202 418.734 351.202L418.734 327.202ZM420.216 327.604C420.658 328.046 421.008 328.597 421.216 329.152C421.41 329.67 421.396 329.963 421.396 329.864L397.396 329.864C397.396 335.029 399.04 340.369 403.246 344.575L420.216 327.604ZM421.396 329.864L421.396 221.702L397.396 221.702L397.396 329.864L421.396 329.864ZM421.396 221.702C421.396 221.656 421.4 221.65 421.395 221.677C421.391 221.705 421.382 221.749 421.364 221.801C421.347 221.853 421.328 221.894 421.315 221.918C421.302 221.943 421.303 221.936 421.331 221.899L402.131 207.499C399.017 211.651 397.396 216.512 397.396 221.702L421.396 221.702ZM418.931 224.299C418.968 224.271 418.975 224.27 418.95 224.283C418.926 224.296 418.885 224.315 418.833 224.332C418.781 224.35 418.737 224.359 418.709 224.363C418.682 224.368 418.688 224.364 418.734 224.364L418.734 200.364C413.544 200.364 408.683 201.985 404.531 205.099L418.931 224.299ZM418.734 224.364L440.522 224.364L440.522 200.364L418.734 200.364L418.734 224.364ZM440.522 224.364C454.22 224.364 466.504 220.573 476.345 212.138L460.726 193.916C456.041 197.931 449.65 200.364 440.522 200.364L440.522 224.364ZM476.345 212.138C486.193 203.697 491.429 192.62 491.429 179.682L467.429 179.682C467.429 185.42 465.403 189.906 460.726 193.916L476.345 212.138ZM491.429 179.682C491.429 166.71 486.144 155.691 475.949 147.68L461.122 166.552C465.452 169.954 467.429 173.98 467.429 179.682L491.429 179.682ZM475.949 147.68C466.024 139.882 453.572 136.557 439.744 136.557L439.744 160.557C449.779 160.557 456.521 162.938 461.122 166.552L475.949 147.68ZM439.744 136.557C423.777 136.557 409.383 142.079 396.956 152.642L412.499 170.928C420.823 163.853 429.773 160.557 439.744 160.557L439.744 136.557ZM396.956 152.642C385.381 162.48 369.604 181.443 349.907 208.397L369.284 222.557C389.013 195.56 403.323 178.728 412.499 170.928L396.956 152.642ZM349.977 208.301C325.671 240.882 306.225 265.165 291.564 281.342L309.348 297.459C324.776 280.435 344.756 255.436 369.214 222.652L349.977 208.301ZM291.564 281.342C277.446 296.921 261.761 308.95 244.51 317.575L255.244 339.041C275.344 328.991 293.378 315.081 309.348 297.459L291.564 281.342ZM244.389 317.636C228.263 325.93 208.696 330.314 185.291 330.314L185.291 354.314C211.687 354.314 235.178 349.361 255.365 338.979L244.389 317.636ZM185.291 330.314C141.366 330.314 107.667 316.528 82.8045 289.789L65.2284 306.132C95.3547 338.531 135.839 354.314 185.291 354.314L185.291 330.314ZM82.732 289.712C57.7434 263.309 44.7748 228.083 44.7748 182.795L20.7748 182.795C20.7748 232.959 35.3007 274.51 65.301 306.209L82.732 289.712Z" fill="#C7FE46" mask="url(#path-1-outside-1_203_74)"/>
</svg>
