<svg width="2898" height="377" viewBox="0 0 2898 377" fill="none" xmlns="http://www.w3.org/2000/svg">
<path d="M2230.06 167.575C2230.06 122.962 2241.47 87.6861 2264.3 61.7479C2287.64 35.8098 2318.51 22.8408 2356.9 22.8408C2360.53 22.8408 2367.02 23.3595 2376.35 24.397L2400.48 27.5096C2404.11 28.0284 2406.96 29.3253 2409.04 31.4003C2411.11 33.9942 2412.15 36.8473 2412.15 39.9599L2412.15 158.238C2412.15 161.35 2411.11 163.685 2409.04 165.241C2406.96 167.316 2404.11 168.094 2400.48 167.575L2383.36 166.019C2375.06 164.982 2368.31 166.019 2363.12 169.132C2357.94 172.244 2355.34 176.913 2355.34 183.138C2355.34 189.882 2358.2 195.589 2363.9 200.258C2369.61 204.926 2376.61 207.261 2384.91 207.261C2392.69 207.261 2400.73 203.37 2409.04 195.589C2417.34 188.326 2430.04 174.06 2447.16 152.791C2464.28 132.04 2479.33 114.921 2492.3 101.433C2505.78 87.9455 2522.13 76.2733 2541.32 66.4168C2561.03 56.5603 2583.34 51.6321 2608.24 51.6321C2612.91 51.6321 2620.95 52.1509 2632.36 53.1884C2678.53 58.8948 2715.88 78.089 2744.42 110.771C2772.95 143.453 2787.21 184.176 2787.21 232.94C2787.21 277.553 2775.28 312.57 2751.42 337.989C2727.56 363.927 2695.39 376.896 2654.93 376.896C2650.26 376.896 2642.74 376.377 2632.36 375.34L2615.24 373.005C2611.61 372.487 2608.76 370.93 2606.68 368.337C2604.61 366.262 2603.57 363.668 2603.57 360.555L2603.57 243.055C2603.57 239.943 2604.61 237.349 2606.68 235.274C2608.76 233.718 2611.61 233.199 2615.24 233.718L2635.47 236.052C2643.26 236.571 2649.48 235.015 2654.15 231.383C2659.34 228.271 2661.93 223.602 2661.93 217.377C2661.93 210.114 2658.82 204.148 2652.59 199.479C2646.37 194.811 2638.07 192.476 2627.69 192.476C2618.87 192.476 2609.8 196.107 2600.46 203.37C2591.12 210.633 2578.15 224.121 2561.55 243.834C2539.24 270.29 2521.09 290.522 2507.08 304.529C2493.59 318.535 2478.55 329.429 2461.95 337.211C2445.87 345.511 2427.45 349.661 2406.7 349.661C2402.55 349.661 2395.29 349.142 2384.91 348.105C2337.71 341.88 2300.09 322.167 2272.08 288.966C2244.07 256.284 2230.06 215.82 2230.06 167.575Z" fill="black"/>
<path d="M1680.74 167.575C1680.74 122.962 1692.15 87.6861 1714.98 61.7479C1738.32 35.8098 1769.19 22.8408 1807.58 22.8408C1811.21 22.8408 1817.69 23.3595 1827.03 24.397L1851.15 27.5096C1854.79 28.0284 1857.64 29.3253 1859.71 31.4003C1861.79 33.9942 1862.83 36.8473 1862.83 39.9599L1862.83 158.238C1862.83 161.35 1861.79 163.685 1859.71 165.241C1857.64 167.316 1854.79 168.094 1851.15 167.575L1834.03 166.019C1825.73 164.982 1818.99 166.019 1813.8 169.132C1808.62 172.244 1806.02 176.913 1806.02 183.138C1806.02 189.882 1808.88 195.589 1814.58 200.258C1820.29 204.926 1827.29 207.261 1835.59 207.261C1843.37 207.261 1851.41 203.37 1859.71 195.589C1868.01 188.326 1880.72 174.06 1897.84 152.791C1914.96 132.04 1930.01 114.921 1942.98 101.433C1956.46 87.9455 1972.8 76.2733 1992 66.4168C2011.71 56.5603 2034.02 51.6321 2058.92 51.6321C2063.59 51.6321 2071.63 52.1509 2083.04 53.1884C2129.21 58.8948 2166.56 78.089 2195.09 110.771C2223.63 143.453 2237.89 184.176 2237.89 232.94C2237.89 277.553 2225.96 312.57 2202.1 337.989C2178.23 363.927 2146.07 376.896 2105.61 376.896C2100.94 376.896 2093.42 376.377 2083.04 375.34L2065.92 373.005C2062.29 372.487 2059.44 370.93 2057.36 368.337C2055.29 366.262 2054.25 363.668 2054.25 360.555L2054.25 243.055C2054.25 239.943 2055.29 237.349 2057.36 235.274C2059.44 233.718 2062.29 233.199 2065.92 233.718L2086.15 236.052C2093.93 236.571 2100.16 235.015 2104.83 231.383C2110.02 228.271 2112.61 223.602 2112.61 217.377C2112.61 210.114 2109.5 204.148 2103.27 199.479C2097.05 194.811 2088.75 192.476 2078.37 192.476C2069.55 192.476 2060.47 196.107 2051.14 203.37C2041.8 210.633 2028.83 224.121 2012.23 243.834C1989.92 270.29 1971.77 290.522 1957.76 304.529C1944.27 318.535 1929.23 329.429 1912.63 337.211C1896.55 345.511 1878.13 349.661 1857.38 349.661C1853.23 349.661 1845.97 349.142 1835.59 348.105C1788.38 341.88 1750.77 322.167 1722.76 288.966C1694.75 256.284 1680.74 215.82 1680.74 167.575Z" fill="black"/>
<path d="M1131.42 167.575C1131.42 122.962 1142.83 87.6861 1165.66 61.7479C1189 35.8098 1219.87 22.8408 1258.26 22.8408C1261.89 22.8408 1268.37 23.3595 1277.71 24.397L1301.83 27.5096C1305.46 28.0284 1308.32 29.3253 1310.39 31.4003C1312.47 33.9942 1313.5 36.8473 1313.5 39.9599L1313.5 158.238C1313.5 161.35 1312.47 163.685 1310.39 165.241C1308.32 167.316 1305.46 168.094 1301.83 167.575L1284.71 166.019C1276.41 164.982 1269.67 166.019 1264.48 169.132C1259.29 172.244 1256.7 176.913 1256.7 183.138C1256.7 189.882 1259.55 195.589 1265.26 200.258C1270.97 204.926 1277.97 207.261 1286.27 207.261C1294.05 207.261 1302.09 203.37 1310.39 195.589C1318.69 188.326 1331.4 174.06 1348.52 152.791C1365.64 132.04 1380.68 114.921 1393.65 101.433C1407.14 87.9455 1423.48 76.2733 1442.68 66.4168C1462.39 56.5603 1484.7 51.6321 1509.6 51.6321C1514.27 51.6321 1522.31 52.1509 1533.72 53.1884C1579.89 58.8948 1617.24 78.089 1645.77 110.771C1674.3 143.453 1688.57 184.176 1688.57 232.94C1688.57 277.553 1676.64 312.57 1652.77 337.989C1628.91 363.927 1596.75 376.896 1556.28 376.896C1551.62 376.896 1544.09 376.377 1533.72 375.34L1516.6 373.005C1512.97 372.487 1510.12 370.93 1508.04 368.337C1505.96 366.262 1504.93 363.668 1504.93 360.555L1504.93 243.055C1504.93 239.943 1505.96 237.349 1508.04 235.274C1510.12 233.718 1512.97 233.199 1516.6 233.718L1536.83 236.052C1544.61 236.571 1550.84 235.015 1555.51 231.383C1560.69 228.271 1563.29 223.602 1563.29 217.377C1563.29 210.114 1560.18 204.148 1553.95 199.479C1547.73 194.811 1539.43 192.476 1529.05 192.476C1520.23 192.476 1511.15 196.107 1501.81 203.37C1492.48 210.633 1479.51 224.121 1462.91 243.834C1440.6 270.29 1422.44 290.522 1408.44 304.529C1394.95 318.535 1379.91 329.429 1363.31 337.211C1347.22 345.511 1328.81 349.661 1308.06 349.661C1303.91 349.661 1296.64 349.142 1286.27 348.105C1239.06 341.88 1201.45 322.167 1173.44 288.966C1145.42 256.284 1131.42 215.82 1131.42 167.575Z" fill="black"/>
<path d="M582.097 167.575C582.097 122.962 593.51 87.6861 616.335 61.7479C639.68 35.8098 670.546 22.8408 708.935 22.8408C712.566 22.8408 719.05 23.3595 728.388 24.397L752.511 27.5096C756.142 28.0284 758.995 29.3253 761.07 31.4003C763.145 33.9942 764.183 36.8473 764.183 39.9599L764.183 158.238C764.183 161.35 763.145 163.685 761.07 165.241C758.995 167.316 756.142 168.094 752.511 167.575L735.391 166.019C727.091 164.982 720.347 166.019 715.16 169.132C709.972 172.244 707.378 176.913 707.378 183.138C707.378 189.882 710.231 195.589 715.938 200.258C721.644 204.926 728.648 207.261 736.948 207.261C744.729 207.261 752.77 203.37 761.07 195.589C769.37 188.326 782.08 174.06 799.199 152.791C816.318 132.04 831.363 114.921 844.332 101.433C857.819 87.9455 874.16 76.2733 893.355 66.4168C913.068 56.5603 935.374 51.6321 960.275 51.6321C964.944 51.6321 972.985 52.1509 984.397 53.1884C1030.57 58.8948 1067.92 78.089 1096.45 110.771C1124.98 143.453 1139.25 184.176 1139.25 232.94C1139.25 277.553 1127.32 312.57 1103.45 337.989C1079.59 363.927 1047.43 376.896 1006.96 376.896C1002.29 376.896 994.773 376.377 984.397 375.34L967.278 373.005C963.647 372.487 960.794 370.93 958.719 368.337C956.644 366.262 955.606 363.668 955.606 360.555L955.606 243.055C955.606 239.943 956.644 237.349 958.719 235.274C960.794 233.718 963.647 233.199 967.278 233.718L987.51 236.052C995.291 236.571 1001.52 235.015 1006.19 231.383C1011.37 228.271 1013.97 223.602 1013.97 217.377C1013.97 210.114 1010.85 204.148 1004.63 199.479C998.404 194.811 990.104 192.476 979.729 192.476C970.91 192.476 961.831 196.107 952.494 203.37C943.156 210.633 930.187 224.121 913.586 243.834C891.28 270.29 873.123 290.522 859.116 304.529C845.628 318.535 830.584 329.429 813.984 337.211C797.902 345.511 779.486 349.661 758.736 349.661C754.586 349.661 747.323 349.142 736.948 348.105C689.74 341.88 652.13 322.167 624.117 288.966C596.104 256.284 582.097 215.82 582.097 167.575Z" fill="black"/>
<path d="M32.7748 167.575C32.7748 122.962 44.1876 87.6861 67.0132 61.7479C90.3575 35.8098 121.224 22.8408 159.612 22.8408C163.244 22.8408 169.728 23.3595 179.066 24.397L203.188 27.5096C206.82 28.0284 209.673 29.3253 211.748 31.4003C213.823 33.9942 214.86 36.8473 214.86 39.9599L214.86 158.238C214.86 161.35 213.823 163.685 211.748 165.241C209.673 167.316 206.82 168.094 203.188 167.575L186.069 166.019C177.769 164.982 171.025 166.019 165.837 169.132C160.65 172.244 158.056 176.913 158.056 183.138C158.056 189.882 160.909 195.589 166.616 200.258C172.322 204.926 179.325 207.261 187.625 207.261C195.407 207.261 203.448 203.37 211.748 195.589C220.048 188.326 232.758 174.06 249.877 152.791C266.996 132.04 282.04 114.921 295.009 101.433C308.497 87.9455 324.838 76.2733 344.032 66.4168C363.745 56.5603 386.052 51.6321 410.953 51.6321C415.622 51.6321 423.662 52.1509 435.075 53.1884C481.245 58.8948 518.596 78.089 547.128 110.771C575.66 143.453 589.926 184.176 589.926 232.94C589.926 277.553 577.994 312.57 554.131 337.989C530.268 363.927 498.105 376.896 457.641 376.896C452.972 376.896 445.45 376.377 435.075 375.34L417.956 373.005C414.325 372.487 411.471 370.93 409.396 368.337C407.321 366.262 406.284 363.668 406.284 360.555L406.284 243.055C406.284 239.943 407.321 237.349 409.396 235.274C411.471 233.718 414.325 233.199 417.956 233.718L438.188 236.052C445.969 236.571 452.194 235.015 456.863 231.383C462.051 228.271 464.645 223.602 464.645 217.377C464.645 210.114 461.532 204.148 455.307 199.479C449.082 194.811 440.782 192.476 430.406 192.476C421.587 192.476 412.509 196.107 403.171 203.37C393.834 210.633 380.864 224.121 364.264 243.834C341.957 270.29 323.801 290.522 309.794 304.529C296.306 318.535 281.262 329.429 264.662 337.211C248.58 345.511 230.164 349.661 209.413 349.661C205.263 349.661 198.001 349.142 187.625 348.105C140.418 341.88 102.808 322.167 74.7946 288.966C46.7814 256.284 32.7748 215.82 32.7748 167.575Z" fill="black"/>
</svg>
