<?xml version="1.0" encoding="UTF-8"?>
<svg id="Layer_1" xmlns="http://www.w3.org/2000/svg" version="1.1" viewBox="0 0 81 74">
  <!-- Generator: Adobe Illustrator 29.0.0, SVG Export Plug-In . SVG Version: 2.1.0 Build 186)  -->
  <defs>
    <style>
      .st0 {
        fill: #fff;
      }
    </style>
  </defs>
  <path class="st0" d="M24.1,3.5h8.8c-.3,1.4-.6,2.8-1,4.2-.3,1.4-.7,2.8-1,4.2-.4,1.4-.7,2.8-1,4.2-.3,1.4-.6,2.9-.9,4.4h-10.3l-1.5-9s0-.2-.1-.2c0,0-.1-.1-.2-.1h-.3s-.2,0-.2.1c0,0-.1.1-.1.2l-1.5,9H5.5c-.2-1.2-.4-2.3-.7-3.5-.3-1.2-.6-2.3-.9-3.5-.3-1.2-.6-2.3-.9-3.5-.3-1.1-.6-2.3-.9-3.4-.3-1.1-.6-2.2-.8-3.3h8.8c0,.8.1,1.6.2,2.4,0,.8.2,1.6.3,2.5.1.8.3,1.6.4,2.4.1.8.3,1.6.4,2.4,0,.1.2.2.3.2h.6s.1,0,.1-.1l1.4-9.8h6.6l1.4,9.7h.1c0,.1.2.1.3.1h.6s.2-.2.2-.3v-.5c.2-1.6.4-3.1.5-4.6.1-1.5.3-3,.4-4.5l.2.3Z"/>
  <path class="st0" d="M17.2,71.5c-2.9,0-5.4-.5-7.6-1.6-2.2-1.1-3.9-2.6-5.1-4.5-1.2-1.9-1.8-4.2-1.8-6.6v-2.1c0-.3,0-.6.3-.7.2-.2.4-.3.7-.3h10.6c.3,0,.6,0,.7.3.2.2.3.4.3.7v1.5c0,.7.2,1.3.5,1.8.4.5.8.7,1.4.7s1-.2,1.4-.6c.4-.4.5-.9.5-1.6s-.4-1.5-1.1-2.2c-.7-.8-2.2-2-4.5-3.6s-4.1-3-5.6-4.3c-1.4-1.3-2.7-3-3.8-4.9-1.1-2-1.6-4.3-1.6-6.8s.6-5,1.8-7,2.9-3.6,5.1-4.7c2.2-1.1,4.7-1.7,7.6-1.7s5.4.6,7.6,1.7,3.9,2.7,5.1,4.7,1.8,4.4,1.8,7v1.5c0,.3,0,.6-.3.7-.2.2-.4.3-.7.3h-10.5c-.3,0-.6,0-.7-.3-.2-.2-.3-.4-.3-.7v-1.8c0-.7-.2-1.2-.5-1.6-.4-.5-.8-.7-1.4-.7s-1.1.2-1.4.7c-.3.5-.5,1.1-.5,1.8s.4,1.8,1.1,2.6,2.2,2,4.3,3.6c2.9,2.1,5.1,3.8,6.5,5.2,1.5,1.3,2.6,2.8,3.5,4.5.9,1.6,1.3,3.5,1.3,5.8,0,4.1-1.3,7.4-4,9.8s-6.2,3.7-10.5,3.7l-.2-.3Z"/>
  <path class="st0" d="M35.8,16.1c0-2.6.5-4.8,1.4-6.8,1-1.9,2.3-3.4,4-4.5,1.7-1,3.7-1.6,5.9-1.6h1.9c.3,0,.5,0,.7.2s.2.4.2.7v9.4c0,.3,0,.5-.2.7s-.4.2-.7.2h-1.3c-.6,0-1.2.2-1.6.5-.4.3-.6.7-.6,1.2s.2.9.5,1.2c.4.3.8.5,1.4.5s1.3-.3,2-1c.7-.6,1.7-2,3.2-4,1.4-2,2.7-3.7,3.9-5s2.6-2.4,4.4-3.4c1.8-1,3.8-1.4,6.1-1.4s4.5.5,6.3,1.6,3.2,2.6,4.2,4.5c1,2,1.5,4.2,1.5,6.8s-.5,4.8-1.5,6.8-2.4,3.5-4.2,4.5c-1.8,1.1-3.9,1.6-6.3,1.6h-1.3c-.3,0-.5,0-.7-.2s-.2-.4-.2-.7v-9.3c0-.3,0-.5.2-.7s.4-.2.7-.2h1.6c.6,0,1.1-.2,1.4-.5.4-.3.6-.7.6-1.3s-.2-.9-.6-1.3c-.4-.3-.9-.4-1.6-.4s-1.6.3-2.4,1c-.7.6-1.8,1.9-3.2,3.9-1.9,2.6-3.4,4.5-4.6,5.8-1.2,1.3-2.5,2.4-4,3.1-1.4.8-3.2,1.1-5.1,1.1-3.7,0-6.6-1.2-8.7-3.6-2.2-2.4-3.3-5.5-3.3-9.3h0Z"/>
  <path class="st0" d="M76.6,46.5h-18.8c-.5,0-.9,0-1.2.3-.3,0-.6.3-.7.6-.2.2-.3.5-.4.7,0,.3,0,.5,0,.7v2.4c0,.4,0,.6.3.8s.5.3.8.3h19v9.6h-19c-.2,0-.4,0-.5.2-.2,0-.3.3-.3.6v2.7c0,.7,0,1.4.2,2.1,0,.6.2,1.5.3,2.5h-18.9v-6.6c0-2.2.2-4.5.3-6.7,0-2.3.3-4.6.4-6.8,0-2.3.2-4.6.2-6.9v-4.1c0-1.4,0-2.7,0-4.1h38.4v12-.2Z"/>
</svg>